<svg width="32" height="32" viewBox="0 0 32 32" fill="none" xmlns="http://www.w3.org/2000/svg">
<path d="M5.16634 26.4548C4.99671 28.5139 6.50049 29.9326 8.42605 30.0708C9.36133 30.1353 10.3104 29.8727 11.2319 30.0109C11.5941 30.0662 11.9333 30.2781 12.3047 30.2413C12.6898 30.1676 13.0474 30.2413 13.3959 30.4071C13.8635 30.5315 14.0881 30.6743 14.4687 30.923C14.8354 31.098 15.2526 30.9276 15.6286 30.8723C15.867 30.8355 16.0596 30.7295 16.2292 30.5729C16.4401 30.3518 16.7197 30.3794 16.9719 30.5176C17.6688 30.8631 18.7141 30.9 19.1084 30.209C19.3055 29.7714 19.7319 29.928 20.1078 29.9464C20.5938 29.9464 21.1165 29.8359 21.5703 29.6747C22.1113 29.4444 22.4277 28.9146 22.6753 28.4033C23.0466 27.6709 23.3171 27.003 23.3263 26.2245C23.4501 25.6073 24.0552 25.2664 24.3899 24.7689C25.3252 23.5574 25.7424 22.0051 26.3613 20.6232C26.476 20.2777 26.4714 19.8263 26.1504 19.619C26.0083 19.5085 25.8708 19.3887 25.7928 19.2183C25.6736 18.9926 25.6966 18.73 25.9304 18.5918C26.994 17.8133 27.7734 16.6295 28.2777 15.4088C28.9471 13.7045 28.9058 11.9126 28.9975 10.1161C29.1672 3.5705 20.5388 6.85483 17.1966 9.49887C16.8252 9.77525 16.5043 10.3004 16.0687 10.5307C15.4131 10.7979 15.4956 9.83513 15.6423 9.46663C15.7891 9.04284 15.9174 8.58221 15.6561 8.17224C15.514 7.9281 15.4727 7.69318 15.5827 7.43983C16.33 5.41304 18.329 3.58432 20.3141 2.66766C20.6121 2.59395 20.8964 2.81506 21.2586 2.75518C21.5703 2.71372 21.905 2.59856 22.1893 2.46498C22.8907 2.1886 22.9549 1.00016 22.038 1.00016C21.7812 0.995551 21.3365 1.09228 21.1073 1.26733C20.6947 1.52989 20.7497 1.94446 20.3737 2.28533C19.4935 2.92561 18.4436 3.354 17.6917 4.15551C16.7977 5.08599 15.922 6.1086 15.3764 7.2694C15.2481 7.58723 14.973 7.65172 14.6475 7.71161C14.6245 7.71161 14.5741 7.72543 14.5466 7.73003C14.3311 7.77149 14.3541 7.5642 14.3632 7.39837C14.5374 5.50977 13.5059 3.64881 12.7677 1.9767C12.6119 1.6082 12.3689 1.09689 11.9196 1.11071C11.5757 1.14295 11.2915 1.54371 11.1448 1.86615C10.9843 2.24848 11.2365 2.75978 11.6537 2.80124C12.6302 2.78281 12.4881 2.0458 13.1437 3.32636C15.8028 9.2271 12.3597 7.17266 13.35 9.82592C12.2405 8.39795 10.5029 6.46789 8.79283 5.31631C7.77503 4.70366 6.70221 3.6442 5.47352 3.72712C3.90555 3.99428 3.13533 5.68942 2.53932 7.09896C1.2281 10.0056 2.44304 13.3221 4.72621 15.4272C4.75831 15.9247 4.26316 16.4268 4.11645 16.9059C2.76855 19.9737 3.28204 23.387 5.89989 23.926C6.11996 23.9812 6.18414 24.078 6.07869 24.253C5.63856 24.8518 5.21219 25.6165 5.1801 26.3765V26.4456L5.16634 26.4548ZM13.5563 11.2769C13.6572 10.9222 13.7259 10.5307 14.079 10.3418C14.3586 10.199 14.7208 9.99175 15.0188 10.0885C16.0229 11.5533 15.6148 13.792 15.2756 15.3167C14.0285 21.1161 11.7179 16.3992 13.5334 11.3414L13.5563 11.2723V11.2769ZM6.1658 23.4607C3.19951 23.1337 3.18117 18.7714 4.52907 16.8322C5.19843 15.9892 5.25345 15.1969 4.39153 14.4737C3.17659 13.2761 2.43845 11.6086 2.37427 9.90883C2.34218 8.03866 3.15825 5.00768 5.2076 4.24763C6.65636 4.0081 7.92632 5.21957 9.04957 5.94737C10.7367 7.18188 12.1855 8.70658 13.3821 10.4063C13.4188 10.5215 13.4096 10.6459 13.3775 10.7748C12.699 12.5943 12.7265 14.5566 12.644 16.5005C11.1677 18.8774 9.30173 23.5344 6.22082 23.4607H6.16122H6.1658ZM5.41392 26.3443C5.42308 25.4875 6.08328 24.8104 6.54633 24.124C6.90394 23.7509 7.49995 23.7555 7.88506 23.3962C9.87023 21.936 11.1218 19.7802 12.3322 17.6751C12.5064 17.431 12.754 16.5235 12.9282 17.2744C13.1529 18.145 13.6847 18.4997 14.3403 17.9469C14.4274 17.8778 14.5787 17.7304 14.6475 17.8133C14.542 20.2961 16.0687 22.7513 18.3015 23.82C18.4803 23.9167 18.5811 24.0227 18.4757 24.2115C18.251 24.5386 18.008 24.8656 17.8659 25.2434C17.6596 25.7178 17.6504 26.312 17.3937 26.7589C17.1782 27.0859 16.9811 27.611 16.7839 27.9012C16.7289 27.9427 16.6647 27.9427 16.5868 27.9012C15.9174 27.3761 15.4131 26.5516 14.4412 26.547C14.3449 26.5378 14.2532 26.5285 14.189 26.5101C13.9689 26.4594 14.056 26.1923 13.8543 26.008C13.5563 25.7777 13.2125 25.7409 12.7632 25.7777C11.4015 25.8883 10.8376 25.8192 10.0995 25.2111C9.67767 24.861 9.26963 24.0687 8.92578 24.2714C8.88452 24.2945 9.21003 24.8518 9.74644 25.3263C10.5809 26.0725 11.2365 26.114 12.5385 26.0264C12.9466 25.9988 13.3454 25.9574 13.5517 26.2522C13.5747 26.3074 13.5701 26.3765 13.5517 26.4502C13.35 26.9569 13.0795 27.5097 12.8778 28.0348C12.6027 28.606 12.4881 29.297 12.1488 29.8083C12.0709 29.8774 11.9654 29.8958 11.8371 29.882C9.11834 29.472 5.40016 30.4255 5.40933 26.4134V26.3351L5.41392 26.3443ZM22.9595 26.418C22.8174 27.6064 22.2489 29.1542 20.9514 29.4582C19.6723 29.6885 17.9989 29.2785 17.114 28.2789C16.9994 27.9104 17.2699 27.5373 17.4395 27.2287C17.7238 26.7911 17.8476 26.2752 17.953 25.7362C18.008 25.4783 18.0906 25.1512 18.4023 25.1605C19.4155 25.2295 20.5709 24.9624 21.4557 25.5244C21.5933 25.6119 21.7308 25.6994 21.8867 25.7501C22.3543 25.8929 22.9962 25.727 22.9595 26.3627V26.4272V26.418ZM16.1558 29.0805C15.812 28.9515 16.0458 29.3983 16.0962 29.5549C16.1879 29.8313 16.1283 30.2366 15.8899 30.3979C15.7295 30.513 15.6378 30.4393 15.6286 30.2919C15.6286 30.0524 15.5736 29.5181 15.2847 29.5088C15.2389 29.5273 15.2297 29.601 15.2526 29.6931C15.3352 29.9511 15.3856 30.2551 15.1793 30.4716C14.7896 30.9138 14.4733 30.4578 14.1386 30.2366C13.9873 30.1583 13.8085 30.1445 13.6618 30.1215C13.4555 30.0939 13.185 29.928 12.9649 29.8405C12.8732 29.7944 12.7448 29.7299 12.7357 29.6194C12.7494 29.3154 12.9328 28.8317 13.0107 28.4954C13.6801 25.9021 14.8354 26.5009 16.2888 28.0302C17.004 28.7396 17.9026 29.2325 18.8149 29.5964C19.0258 29.776 18.9296 30.1031 18.7049 30.2274C18.031 30.642 17.0957 30.3288 16.5409 29.8635C16.3759 29.6424 16.4034 29.2739 16.1925 29.1035L16.1558 29.0805ZM25.5269 19.1492C25.8983 20.356 24.72 21.2451 24.2157 22.2308C24.0598 22.5579 23.7022 22.9356 23.7251 23.3087C23.8352 23.3225 23.9727 22.9724 24.0369 22.8757C24.5412 21.8715 25.4352 21.1299 25.802 20.0428C25.8524 19.9276 25.9671 19.771 26.0771 19.8724C26.2605 20.1119 26.0954 20.5449 26.0083 20.8305C25.2289 22.4381 24.5825 24.4833 23.23 25.6718C23.1337 25.7178 23.0374 25.7178 22.9228 25.6994C22.4277 25.5842 21.8408 25.5244 21.3915 25.2388C20.6076 24.7228 19.5806 24.9578 18.6682 24.9301C18.5353 24.9255 18.4253 24.9071 18.4069 24.8518C18.4757 24.5893 18.7691 24.253 18.9892 24.1517C19.2001 24.0734 19.6769 24.0918 19.9428 24.0641C21.9876 23.7647 22.8495 21.4385 23.9452 20.0059C24.5229 19.315 24.4449 20.4436 24.3212 20.789C24.124 21.6688 23.2162 22.0143 22.8541 22.7836C22.7807 22.9079 22.7394 23.2811 22.932 23.0461C23.418 22.1387 24.555 21.5905 24.6467 20.4804C24.7338 20.1027 24.532 19.6835 24.7338 19.338C24.9355 19.0478 25.316 18.7576 25.4948 19.1031L25.5178 19.1538L25.5269 19.1492ZM28.6766 10.8439C28.6537 14.3908 28.021 17.0671 24.7338 18.882C24.1928 19.2966 23.6335 19.6651 23.3171 20.2961C22.391 22.0051 20.603 24.4234 18.494 23.5528C16.032 22.6408 14.3082 19.1906 15.1655 16.671C15.4452 15.9984 15.7707 15.0726 15.8395 14.3816C16.0687 12.6496 15.5277 11.6777 16.4951 10.5077C16.9261 9.98254 17.7971 9.35147 18.4665 9.00138C20.5617 7.85901 22.7394 6.84561 25.1097 6.65675C27.6588 6.05793 28.7821 8.50851 28.6766 10.7886V10.8485V10.8439ZM22.987 10.6044C22.8403 10.609 22.7028 10.3096 22.5194 10.3971C22.2764 10.5031 22.1297 10.6643 22.0242 10.8485C21.9555 10.9959 21.8087 11.1664 21.85 11.3552C21.8638 11.5902 21.8225 11.8205 21.9463 11.9494C22.4368 12.2581 23.0833 12.0692 23.3171 11.5211C23.5005 11.171 23.4042 10.7288 23.0191 10.6136L22.9778 10.6044H22.987ZM7.26154 10.2405C7.49995 10.7149 8.38938 10.609 8.65529 10.2221C8.77449 9.97793 8.73323 9.58639 8.62319 9.3745C8.54067 9.24552 8.38021 9.2271 8.24725 9.19024C8.13263 9.15339 8.04552 9.03363 7.91257 9.04745C7.68792 9.03363 7.53204 9.19946 7.34865 9.26395C7.14693 9.49426 7.04148 9.93647 7.23403 10.2036L7.25696 10.2405H7.26154Z" fill="#15566F" stroke="#15566F" stroke-width="0.4" stroke-linecap="round" stroke-linejoin="round"/>
</svg>
